<?xml version="1.0" encoding="iso-8859-1"?>
<!-- Generator: Adobe Illustrator 16.0.0, SVG Export Plug-In . SVG Version: 6.00 Build 0)  -->
<!DOCTYPE svg PUBLIC "-//W3C//DTD SVG 1.1//EN" "http://www.w3.org/Graphics/SVG/1.1/DTD/svg11.dtd">
<svg version="1.1" id="Capa_1" xmlns="http://www.w3.org/2000/svg" xmlns:xlink="http://www.w3.org/1999/xlink" x="0px" y="0px"
	 width="363.071px" height="363.071px" viewBox="0 0 363.071 363.071" style="enable-background:new 0 0 363.071 363.071;"
	 xml:space="preserve">
<g>
	<g>
		<path d="M257.648,275.122c-2.462-1.443-5.271-2.205-8.126-2.205c-5.713,0-11.056,3.066-13.933,8.012
			c-17.932,30.771-51.177,49.885-86.758,49.885c-55.329,0-100.342-45.014-100.342-100.343c0-36.578,19.926-70.284,51.998-87.951
			c3.772-2.082,6.509-5.507,7.707-9.638c1.2-4.139,0.717-8.499-1.37-12.273c-2.838-5.145-8.252-8.336-14.126-8.336
			c-2.698,0-5.375,0.687-7.772,1.997c-42.37,23.347-68.688,67.87-68.688,116.206c0,73.119,59.479,132.596,132.595,132.596
			c47.01,0,90.931-25.25,114.621-65.896c2.173-3.727,2.762-8.068,1.669-12.236C264.021,280.77,261.354,277.28,257.648,275.122z
			 M254.163,291.752c-21.775,37.354-62.139,60.562-105.331,60.562c-67.187,0-121.844-54.657-121.844-121.845
			c0-44.41,24.189-85.335,63.125-106.788c2.596-1.423,5.863-0.483,7.299,2.118c1.436,2.598,0.483,5.872-2.118,7.302
			c-35.505,19.564-57.561,56.874-57.561,97.368c0,61.261,49.836,111.094,111.094,111.094c39.387,0,76.19-21.16,96.049-55.219
			c1.496-2.567,4.781-3.438,7.345-1.938C254.792,285.893,255.658,289.184,254.163,291.752z"/>
		<path d="M342.588,278.703c-3.049-3.329-7.375-5.235-11.885-5.235c-4.047,0-7.921,1.509-10.902,4.248L311.858,285l-50.305-62.378
			l-0.714-0.483c-0.525-0.457-0.997-0.803-1.36-1.07c-0.792-0.594-1.595-1.119-2.483-1.537c-0.839-0.4-1.711-0.693-2.734-0.956
			c-0.415-0.116-1.055-0.295-1.844-0.42l-0.797-0.227h-86.662v-73.411h84.563c8.892,0,16.125-7.236,16.125-16.125
			c0-8.893-7.233-16.126-16.125-16.126h-84.563V90.71c0-3.719-1.315-7.11-3.443-9.844c16.661-5.375,28.756-21.01,28.756-39.433
			C190.271,18.588,171.683,0,148.832,0c-22.85,0-41.439,18.588-41.439,41.434c0,18.422,12.095,34.058,28.76,39.433
			c-2.128,2.733-3.446,6.12-3.446,9.844v143.346c0,8.887,7.236,16.127,16.125,16.127h93.528l54.637,67.754l0.132,0.283l0.645,0.708
			l0.856,1.092l0.582,0.363c0.776,0.683,1.485,1.143,1.974,1.448l0.992,0.777l1.296,0.587c2.122,0.955,4.348,1.438,6.627,1.438
			c1.847,0,3.695-0.325,5.595-1.013c0.814-0.299,1.47-0.657,1.9-0.903c0.441-0.216,1.113-0.562,1.906-1.117l0.426-0.221l0.85-0.776
			l0.729-0.621l0.109-0.152l19.99-18.335c3.176-2.914,5.028-6.888,5.213-11.192C347.003,285.998,345.497,281.874,342.588,278.703z
			 M118.145,41.439c0-16.916,13.766-30.683,30.688-30.683c16.922,0,30.688,13.767,30.688,30.683
			c0,16.917-13.766,30.683-30.688,30.683C131.911,72.122,118.145,58.355,118.145,41.439z M334.341,293.557l-20.609,18.908
			c-0.052,0.044-0.109,0.054-0.156,0.096c-0.042,0.042-0.064,0.094-0.105,0.131c-0.299,0.241-0.65,0.373-0.977,0.552
			c-0.195,0.094-0.361,0.229-0.557,0.31c-0.598,0.216-1.218,0.341-1.836,0.341c-0.758,0-1.503-0.178-2.207-0.494
			c-0.229-0.104-0.408-0.304-0.618-0.441c-0.395-0.251-0.808-0.449-1.135-0.808c-0.041-0.052-0.057-0.114-0.099-0.161
			c-0.036-0.049-0.089-0.06-0.122-0.101l-58.415-72.457h-98.673c-2.965,0-5.375-2.41-5.375-5.376V90.71
			c0-2.969,2.41-5.376,5.375-5.376c2.969,0,5.376,2.407,5.376,5.376v32.307h95.314c2.966,0,5.374,2.407,5.374,5.375
			c0,2.966-2.408,5.375-5.374,5.375h-95.314v94.912h95.865c0.088,0,0.174,0.047,0.268,0.058c0.389,0.011,0.756,0.122,1.145,0.231
			c0.299,0.083,0.603,0.137,0.881,0.272c0.294,0.138,0.551,0.346,0.82,0.551c0.304,0.226,0.598,0.437,0.854,0.714
			c0.062,0.07,0.153,0.102,0.216,0.18l56.426,69.989l16.389-15.033c2.189-2.006,5.584-1.864,7.596,0.33
			C336.673,288.151,336.524,291.552,334.341,293.557z"/>
	</g>
</g>
</svg>
