<?xml version="1.0" encoding="iso-8859-1"?>
<!-- Generator: Adobe Illustrator 19.0.0, SVG Export Plug-In . SVG Version: 6.00 Build 0)  -->
<svg version="1.1" id="Layer_1" xmlns="http://www.w3.org/2000/svg" xmlns:xlink="http://www.w3.org/1999/xlink" x="0px" y="0px"
	 viewBox="0 0 512 512" style="enable-background:new 0 0 512 512;" xml:space="preserve">
<path style="fill:#CCCCCC;" d="M502.378,9.046v492.499H9.879V9.046H502.378z M442.901,442.068V68.51H69.357v373.557H442.901z"/>
<rect x="132.735" y="68.51" style="fill:#E6E6E6;" width="42.759" height="373.557"/>
<polygon style="fill:#CCCCCC;" points="152.959,276.662 152.959,442.068 132.734,442.068 132.734,276.662 132.734,233.903 
	132.734,68.51 152.959,68.51 152.959,233.903 "/>
<rect x="234.751" y="68.51" style="fill:#E6E6E6;" width="42.759" height="373.557"/>
<polygon style="fill:#CCCCCC;" points="254.974,276.662 254.974,442.068 234.749,442.068 234.749,276.662 234.749,233.903 
	234.749,68.51 254.974,68.51 254.974,233.903 "/>
<rect x="336.766" y="68.51" style="fill:#E6E6E6;" width="42.759" height="373.557"/>
<rect x="379.525" y="233.906" style="fill:#B3B3B3;" width="63.378" height="42.759"/>
<g>
	<path style="fill:#CCCCCC;" d="M336.765,68.51v30.33h42.759V68.51C379.523,68.51,336.765,68.51,336.765,68.51z M234.749,98.84
		h42.759V68.51h-42.759V98.84z M132.734,98.84h42.759V68.51h-42.759V98.84z"/>
	<polygon style="fill:#CCCCCC;" points="356.989,276.662 356.989,442.068 336.765,442.068 336.765,276.662 336.765,233.903 
		336.765,68.51 356.989,68.51 356.989,233.903 	"/>
</g>
<g>
	<rect x="277.509" y="233.906" style="fill:#B3B3B3;" width="59.256" height="42.759"/>
	<rect x="69.358" y="233.906" style="fill:#B3B3B3;" width="63.378" height="42.759"/>
	<rect x="175.494" y="233.906" style="fill:#B3B3B3;" width="59.256" height="42.759"/>
</g>
<path d="M502.25,0H9.75C4.366,0,0,4.366,0,9.75V502.25c0,5.385,4.366,9.75,9.75,9.75H502.25c5.385,0,9.75-4.366,9.75-9.75V9.75
	C512,4.366,507.634,0,502.25,0z M492.499,492.499H19.501V19.501h472.998V492.499z"/>
<path d="M69.228,452.523h373.544c5.385,0,9.75-4.366,9.75-9.75V69.215c0-5.385-4.366-9.75-9.75-9.75H69.228
	c-5.385,0-9.75,4.366-9.75,9.75v288.534c0,5.385,4.366,9.75,9.75,9.75s9.75-4.366,9.75-9.75v-70.632h43.877v145.905H78.978V386.35
	c0-5.385-4.366-9.75-9.75-9.75s-9.75,4.366-9.75,9.75v56.422C59.477,448.157,63.843,452.523,69.228,452.523z M185.115,244.358
	h39.756v23.258h-39.756V244.358z M224.87,224.857h-39.756V78.965h39.756V224.857z M185.115,287.117h39.756v145.905h-39.756V287.117z
	 M287.13,244.358h39.756v23.258H287.13V244.358z M326.885,224.857H287.13V78.965h39.756V224.857z M287.13,287.117h39.756v145.905
	H287.13V287.117z M389.145,244.358h43.877v23.258h-43.877V244.358z M389.145,433.022V287.117h43.877v145.905L389.145,433.022
	L389.145,433.022z M369.644,78.965v42.824c0,5.385,4.366,9.75,9.75,9.75c5.385,0,9.75-4.366,9.75-9.75V78.965h43.877v145.892
	h-43.877V147.14c0-5.385-4.366-9.75-9.75-9.75c-5.385,0-9.75,4.366-9.75,9.75v285.882h-23.258V78.965H369.644z M267.629,78.965
	v354.057h-23.258V78.965H267.629z M122.855,78.965v145.892H78.978V78.965H122.855z M78.978,267.616v-23.258h43.877v23.258H78.978z
	 M142.356,78.965h23.258v354.057h-23.258V78.965z"/>
<g>
</g>
<g>
</g>
<g>
</g>
<g>
</g>
<g>
</g>
<g>
</g>
<g>
</g>
<g>
</g>
<g>
</g>
<g>
</g>
<g>
</g>
<g>
</g>
<g>
</g>
<g>
</g>
<g>
</g>
</svg>
