<?xml version="1.0" encoding="iso-8859-1"?>
<!-- Generator: Adobe Illustrator 19.0.0, SVG Export Plug-In . SVG Version: 6.00 Build 0)  -->
<svg version="1.1" id="Layer_1" xmlns="http://www.w3.org/2000/svg" xmlns:xlink="http://www.w3.org/1999/xlink" x="0px" y="0px"
	 viewBox="0 0 218.183 218.183" style="enable-background:new 0 0 218.183 218.183;" xml:space="preserve">
<g>
	<g>
		<g>
			<path d="M135.634,109.124v12.088h-12.401c-2.233,0-4.04,1.809-4.04,4.04c0,2.231,1.807,4.04,4.04,4.04h12.401h48.485h13.861
				c2.233,0,4.04-1.809,4.04-4.04c0-2.231-1.807-4.04-4.04-4.04h-13.861v-36.37c0-20.048-16.323-36.358-36.387-36.358h-42.68V28.283
				h32.323V14.141C137.374,6.345,131.029,0,123.232,0H78.788c-7.797,0-14.141,6.345-14.141,14.141v14.141H96.97v20.202H12.121V96.97
				h111.364C130.185,96.97,135.634,102.423,135.634,109.124z M72.727,20.202v-6.061c0-3.342,2.719-6.061,6.061-6.061h44.444
				c3.342,0,6.061,2.719,6.061,6.061v6.061H72.727z M20.202,56.566h127.529c15.609,0,28.307,12.685,28.307,28.277v36.37h-32.323
				v-12.088c0-11.158-9.075-20.236-20.23-20.236H20.202V56.566z"/>
			<path d="M157.576,135.354c-2.233,0-4.04,1.809-4.04,4.04v74.747c0,2.231,1.807,4.04,4.04,4.04c2.233,0,4.04-1.809,4.04-4.04
				v-74.747C161.616,137.163,159.809,135.354,157.576,135.354z"/>
			<path d="M138.621,135.551c-2.135-0.684-4.403,0.478-5.09,2.596l-24.242,74.747c-0.691,2.123,0.474,4.402,2.596,5.09
				c0.414,0.134,0.836,0.199,1.247,0.199c1.705,0,3.291-1.087,3.843-2.796l24.242-74.747
				C141.908,138.518,140.744,136.239,138.621,135.551z"/>
			<path d="M205.864,210.874l-24.242-74.747c-0.686-2.119-2.947-3.285-5.09-2.596c-2.123,0.688-3.287,2.967-2.596,5.09
				l24.242,74.747c0.552,1.709,2.139,2.796,3.843,2.796c0.411,0,0.833-0.065,1.247-0.199
				C205.39,215.276,206.554,212.997,205.864,210.874z"/>
			<path d="M177.714,177.075c-0.386-2.195-2.481-3.667-4.679-3.277c-2.198,0.389-3.665,2.484-3.275,4.682l6.061,34.343
				c0.343,1.959,2.048,3.338,3.973,3.338c0.233,0,0.469-0.02,0.706-0.061c2.198-0.389,3.665-2.484,3.275-4.682L177.714,177.075z"/>
			<path d="M142.116,173.798c-2.202-0.389-4.297,1.081-4.68,3.277l-6.061,34.343c-0.391,2.198,1.077,4.293,3.275,4.682
				c0.237,0.042,0.474,0.061,0.707,0.061c1.926,0,3.63-1.379,3.973-3.338l6.061-34.343
				C145.782,176.282,144.314,174.187,142.116,173.798z"/>
		</g>
	</g>
</g>

</svg>
